<svg width="35" height="35" viewBox="0 0 35 35" fill="none" xmlns="http://www.w3.org/2000/svg">
<circle cx="17.5" cy="17.5" r="17" stroke="black"/>
<circle cx="30.5" cy="6.5" r="3.5" fill="#29BC2F"/>
<path d="M24 13.0011C24 11.4095 23.3679 9.88309 22.2426 8.75767C21.1174 7.63225 19.5913 7 18 7C16.4087 7 14.8826 7.63225 13.7574 8.75767C12.6321 9.88309 12 11.4095 12 13.0011C12 20.0023 9 22.0027 9 22.0027H27C27 22.0027 24 20.0023 24 13.0011Z" stroke="black" stroke-width="2" stroke-linecap="round" stroke-linejoin="round"/>
<path d="M19.73 26.0034C19.5542 26.3065 19.3019 26.5582 18.9982 26.7331C18.6946 26.908 18.3504 27.0001 18 27.0001C17.6496 27.0001 17.3054 26.908 17.0018 26.7331C16.6982 26.5582 16.4458 26.3065 16.27 26.0034" stroke="black" stroke-width="2" stroke-linecap="round" stroke-linejoin="round"/>
</svg>
