<svg width="43" height="48" viewBox="0 0 43 48" fill="none" xmlns="http://www.w3.org/2000/svg">
<path d="M28.0021 47.3881C28.474 47.3881 28.9215 47.1729 29.2077 46.8021L33.6002 41.1121H40.9202C41.4428 41.1121 41.928 40.8489 42.2025 40.4171C42.4773 39.9853 42.5024 39.4462 42.2684 38.9919L35.4846 25.8098C35.1125 25.0866 34.2067 24.7932 33.462 25.1549L20.8335 31.9935C20.0888 32.3555 19.7873 33.2352 20.1594 33.9588L26.6535 46.5786C26.8831 47.0249 27.3762 47.3881 28.0021 47.3881Z" fill="#DD0000"/>
<path d="M14.4258 47.3881C13.9539 47.3881 13.5063 47.1729 13.2197 46.8021L8.8277 41.1121H1.50765C0.985095 41.1121 0.49984 40.8489 0.225019 40.4171C-0.0494099 39.9853 -0.0745364 39.4462 0.159062 38.9919L6.94282 25.8098C7.3154 25.0866 8.22113 24.7932 8.96551 25.1549L21.5943 31.9935C22.3391 32.3555 22.6406 33.2352 22.2684 33.9588L15.7744 46.5786C15.5447 47.0249 15.0516 47.3881 14.4258 47.3881Z" fill="#FF7A00"/>
<path d="M20.5 35C10.8505 35 3 27.1495 3 17.5C3 7.85047 10.8505 0 20.5 0C30.1495 0 38 7.85047 38 17.5C38 27.1492 30.1495 35 20.5 35Z" fill="#FFD700"/>
<path d="M38.5 17.5C38.5 7.85047 30.6495 0 21 0V35C30.6495 35 38.5 27.1492 38.5 17.5Z" fill="#D4AF37"/>
<path d="M17.88 25.14H17.76C17.76 24.0067 17.94 22.6133 18.3 20.96C18.6733 19.3067 19.04 17.7467 19.4 16.28C19.7733 14.8 19.96 13.7133 19.96 13.02C19.1067 13.5667 18.3867 14.14 17.8 14.74C17.5467 14.6067 17.32 14.4133 17.12 14.16C16.92 13.8933 16.78 13.6667 16.7 13.48L16.58 13.2L20.12 11.06C21.1333 10.8867 22.2933 10.8 23.6 10.8C23.7467 11.16 23.82 11.6133 23.82 12.16C23.82 12.7067 23.64 13.74 23.28 15.26C22.9333 16.7667 22.58 18.4133 22.22 20.2C21.86 21.9733 21.68 23.46 21.68 24.66C21.08 24.98 19.8133 25.14 17.88 25.14Z" fill="black"/>
</svg>
