<svg width="43" height="48" viewBox="0 0 43 48" fill="none" xmlns="http://www.w3.org/2000/svg">
<path d="M28.0021 47.3881C28.474 47.3881 28.9215 47.1729 29.2077 46.8021L33.6002 41.1121H40.9202C41.4428 41.1121 41.928 40.8489 42.2025 40.4171C42.4773 39.9853 42.5024 39.4462 42.2684 38.9919L35.4846 25.8098C35.1125 25.0866 34.2067 24.7932 33.462 25.1549L20.8335 31.9935C20.0888 32.3555 19.7873 33.2352 20.1594 33.9588L26.6535 46.5786C26.8831 47.0249 27.3762 47.3881 28.0021 47.3881Z" fill="#0092DD"/>
<path d="M14.4258 47.3881C13.9539 47.3881 13.5063 47.1729 13.2197 46.8021L8.8277 41.1121H1.50765C0.985095 41.1121 0.49984 40.8489 0.225019 40.4171C-0.0494099 39.9853 -0.0745364 39.4462 0.159062 38.9919L6.94282 25.8098C7.3154 25.0866 8.22113 24.7932 8.96551 25.1549L21.5943 31.9935C22.3391 32.3555 22.6406 33.2352 22.2684 33.9588L15.7744 46.5786C15.5447 47.0249 15.0516 47.3881 14.4258 47.3881Z" fill="#00CEFF"/>
<path d="M20.5 35C10.8505 35 3 27.1495 3 17.5C3 7.85047 10.8505 0 20.5 0C30.1495 0 38 7.85047 38 17.5C38 27.1492 30.1495 35 20.5 35Z" fill="#B08D57"/>
<path d="M38.5 17.5C38.5 7.85047 30.6495 0 21 0V35C30.6495 35 38.5 27.1492 38.5 17.5Z" fill="#CD7F32"/>
<path d="M19.28 11.66C20.12 11.0867 21.1333 10.8 22.32 10.8C23.5067 10.8 24.4467 11.0867 25.14 11.66C25.8467 12.2333 26.2 12.9467 26.2 13.8C26.2 14.6533 25.88 15.4 25.24 16.04C24.6133 16.68 23.8133 17.1067 22.84 17.32C23.8133 17.48 24.6 17.8533 25.2 18.44C25.8 19.0267 26.1 19.7867 26.1 20.72C26.1 22 25.5467 23.0733 24.44 23.94C23.3333 24.8067 22.0333 25.24 20.54 25.24C19.3667 25.24 18.2867 24.9867 17.3 24.48C16.3267 23.96 15.84 23.2667 15.84 22.4C15.84 21.72 16.0333 21.2067 16.42 20.86C16.58 20.8333 16.78 20.82 17.02 20.82C18.1133 20.82 18.9867 21.0867 19.64 21.62L19.38 23.68C19.5267 23.8267 19.76 23.9 20.08 23.9C20.68 23.9 21.18 23.5667 21.58 22.9C21.98 22.22 22.18 21.44 22.18 20.56C22.18 19.6667 21.98 19.0333 21.58 18.66C21.1933 18.2867 20.58 18.1 19.74 18.1L18.94 18.14L19.04 16.86C19.88 16.7933 20.5333 16.6333 21 16.38C21.9467 15.86 22.42 15.14 22.42 14.22C22.42 13.74 22.2867 13.3733 22.02 13.12C21.7667 12.8533 21.44 12.72 21.04 12.72C20.6533 12.72 20.2333 12.8667 19.78 13.16C19.34 13.4533 18.9467 13.8667 18.6 14.4L17.4 13.84C17.8133 12.9467 18.44 12.22 19.28 11.66Z" fill="black"/>
</svg>
