<svg width="43" height="48" viewBox="0 0 43 48" fill="none" xmlns="http://www.w3.org/2000/svg">
<path d="M28.0021 47.3881C28.474 47.3881 28.9215 47.1729 29.2077 46.8021L33.6002 41.1121H40.9202C41.4428 41.1121 41.928 40.8489 42.2025 40.4171C42.4773 39.9853 42.5024 39.4462 42.2684 38.9919L35.4846 25.8098C35.1125 25.0866 34.2067 24.7932 33.462 25.1549L20.8335 31.9935C20.0888 32.3555 19.7873 33.2352 20.1594 33.9588L26.6535 46.5786C26.8831 47.0249 27.3762 47.3881 28.0021 47.3881Z" fill="#0092DD"/>
<path d="M14.4258 47.3881C13.9539 47.3881 13.5063 47.1729 13.2197 46.8021L8.8277 41.1121H1.50765C0.985095 41.1121 0.49984 40.8489 0.225019 40.4171C-0.0494099 39.9853 -0.0745364 39.4462 0.159062 38.9919L6.94282 25.8098C7.3154 25.0866 8.22113 24.7932 8.96551 25.1549L21.5943 31.9935C22.3391 32.3555 22.6406 33.2352 22.2684 33.9588L15.7744 46.5786C15.5447 47.0249 15.0516 47.3881 14.4258 47.3881Z" fill="#00CEFF"/>
<path d="M20.5 35C10.8505 35 3 27.1495 3 17.5C3 7.85047 10.8505 0 20.5 0C30.1495 0 38 7.85047 38 17.5C38 27.1492 30.1495 35 20.5 35Z" fill="#EFF6FE"/>
<path d="M38.5 17.5C38.5 7.85047 30.6495 0 21 0V35C30.6495 35 38.5 27.1492 38.5 17.5Z" fill="#D2DCE7"/>
<path d="M25.1966 23.6374H17.111C17.2994 22.9092 17.7599 22.266 18.4195 21.8388C19.2891 21.2757 23.7809 18.3663 23.7809 18.3663C25.6116 17.1803 26.7042 15.1963 26.7042 13.057C26.641 9.70157 23.8237 7 20.3554 7C16.8868 7 14.0695 9.70157 14.0063 13.057C14.0063 13.8661 14.6812 14.5218 15.5139 14.5218C16.3466 14.5218 17.0215 13.8661 17.0215 13.057C17.0839 11.3198 18.5522 9.92969 20.3554 9.92969C22.1583 9.92969 23.6266 11.3198 23.689 13.057C23.689 14.2128 23.0981 15.2874 22.1088 15.9283C22.1088 15.9283 17.6174 18.8378 16.747 19.4008C15.027 20.5155 14 22.3797 14 24.3874V25.1023C14 25.9114 14.6753 26.5671 15.5076 26.5671H25.1966C26.0293 26.5671 26.7042 25.9114 26.7042 25.1023C26.7042 24.2932 26.0293 23.6374 25.1966 23.6374Z" fill="#D2DCE7"/>
<path d="M20.355 7C20.3543 7 20.3531 7 20.3523 7V9.92969H20.355C22.1583 9.92969 23.6266 11.3198 23.689 13.057C23.689 14.2128 23.0981 15.2874 22.1088 15.9283C22.1088 15.9283 21.3267 16.4349 20.3519 17.0662V20.5872C21.9121 19.5767 23.7809 18.3663 23.7809 18.3663C25.6112 17.1803 26.7042 15.1963 26.7042 13.057C26.641 9.70157 23.8237 7 20.355 7Z" fill="#A1AEBC"/>
<path d="M26.7042 25.1023C26.7042 24.2932 26.0293 23.6375 25.1966 23.6375H20.3523V26.5671H25.1966C26.0293 26.5671 26.7042 25.9114 26.7042 25.1023Z" fill="#A1AEBC"/>
</svg>
