<svg width="35" height="35" viewBox="0 0 35 35" fill="none" xmlns="http://www.w3.org/2000/svg">
<circle cx="17.5" cy="17.5" r="17" stroke="black"/>
<path d="M18 19.7273C19.5062 19.7273 20.7273 18.5062 20.7273 17C20.7273 15.4937 19.5062 14.2727 18 14.2727C16.4937 14.2727 15.2727 15.4937 15.2727 17C15.2727 18.5062 16.4937 19.7273 18 19.7273Z" stroke="black" stroke-width="2" stroke-linecap="round" stroke-linejoin="round"/>
<path d="M24.7273 19.7273C24.6063 20.0015 24.5702 20.3056 24.6236 20.6005C24.6771 20.8954 24.8177 21.1676 25.0273 21.3818L25.0818 21.4364C25.2509 21.6052 25.385 21.8057 25.4765 22.0265C25.568 22.2472 25.6151 22.4838 25.6151 22.7227C25.6151 22.9617 25.568 23.1983 25.4765 23.419C25.385 23.6397 25.2509 23.8402 25.0818 24.0091C24.913 24.1781 24.7124 24.3122 24.4917 24.4037C24.271 24.4952 24.0344 24.5423 23.7955 24.5423C23.5565 24.5423 23.3199 24.4952 23.0992 24.4037C22.8785 24.3122 22.678 24.1781 22.5091 24.0091L22.4545 23.9545C22.2403 23.745 21.9682 23.6044 21.6733 23.5509C21.3784 23.4974 21.0742 23.5335 20.8 23.6545C20.5311 23.7698 20.3018 23.9611 20.1403 24.205C19.9788 24.4489 19.8921 24.7347 19.8909 25.0273V25.1818C19.8909 25.664 19.6994 26.1265 19.3584 26.4675C19.0174 26.8084 18.5549 27 18.0727 27C17.5905 27 17.1281 26.8084 16.7871 26.4675C16.4461 26.1265 16.2545 25.664 16.2545 25.1818V25.1C16.2475 24.7991 16.1501 24.5073 15.975 24.2625C15.7999 24.0176 15.5552 23.8312 15.2727 23.7273C14.9985 23.6063 14.6944 23.5702 14.3995 23.6236C14.1046 23.6771 13.8324 23.8177 13.6182 24.0273L13.5636 24.0818C13.3948 24.2509 13.1943 24.385 12.9735 24.4765C12.7528 24.568 12.5162 24.6151 12.2773 24.6151C12.0383 24.6151 11.8017 24.568 11.581 24.4765C11.3603 24.385 11.1598 24.2509 10.9909 24.0818C10.8219 23.913 10.6878 23.7124 10.5963 23.4917C10.5048 23.271 10.4577 23.0344 10.4577 22.7955C10.4577 22.5565 10.5048 22.3199 10.5963 22.0992C10.6878 21.8785 10.8219 21.678 10.9909 21.5091L11.0455 21.4545C11.255 21.2403 11.3956 20.9682 11.4491 20.6733C11.5026 20.3784 11.4665 20.0742 11.3455 19.8C11.2302 19.5311 11.0389 19.3018 10.795 19.1403C10.5511 18.9788 10.2653 18.8921 9.97273 18.8909H9.81818C9.33597 18.8909 8.87351 18.6994 8.53253 18.3584C8.19156 18.0174 8 17.5549 8 17.0727C8 16.5905 8.19156 16.1281 8.53253 15.7871C8.87351 15.4461 9.33597 15.2545 9.81818 15.2545H9.9C10.2009 15.2475 10.4927 15.1501 10.7375 14.975C10.9824 14.7999 11.1688 14.5552 11.2727 14.2727C11.3937 13.9985 11.4298 13.6944 11.3764 13.3995C11.3229 13.1046 11.1823 12.8324 10.9727 12.6182L10.9182 12.5636C10.7491 12.3948 10.615 12.1943 10.5235 11.9735C10.432 11.7528 10.3849 11.5162 10.3849 11.2773C10.3849 11.0383 10.432 10.8017 10.5235 10.581C10.615 10.3603 10.7491 10.1598 10.9182 9.99091C11.087 9.82186 11.2876 9.68775 11.5083 9.59626C11.729 9.50476 11.9656 9.45766 12.2045 9.45766C12.4435 9.45766 12.6801 9.50476 12.9008 9.59626C13.1215 9.68775 13.322 9.82186 13.4909 9.99091L13.5455 10.0455C13.7597 10.255 14.0318 10.3956 14.3267 10.4491C14.6216 10.5026 14.9258 10.4665 15.2 10.3455H15.2727C15.5416 10.2302 15.7709 10.0389 15.9324 9.79497C16.094 9.55107 16.1807 9.26526 16.1818 8.97273V8.81818C16.1818 8.33597 16.3734 7.87351 16.7144 7.53253C17.0553 7.19156 17.5178 7 18 7C18.4822 7 18.9447 7.19156 19.2856 7.53253C19.6266 7.87351 19.8182 8.33597 19.8182 8.81818V8.9C19.8193 9.19253 19.906 9.47834 20.0676 9.72224C20.2291 9.96614 20.4584 10.1575 20.7273 10.2727C21.0015 10.3937 21.3056 10.4298 21.6005 10.3764C21.8954 10.3229 22.1676 10.1823 22.3818 9.97273L22.4364 9.91818C22.6052 9.74913 22.8057 9.61503 23.0265 9.52353C23.2472 9.43203 23.4838 9.38493 23.7227 9.38493C23.9617 9.38493 24.1983 9.43203 24.419 9.52353C24.6397 9.61503 24.8402 9.74913 25.0091 9.91818C25.1781 10.087 25.3122 10.2876 25.4037 10.5083C25.4952 10.729 25.5423 10.9656 25.5423 11.2045C25.5423 11.4435 25.4952 11.6801 25.4037 11.9008C25.3122 12.1215 25.1781 12.322 25.0091 12.4909L24.9545 12.5455C24.745 12.7597 24.6044 13.0318 24.5509 13.3267C24.4974 13.6216 24.5335 13.9258 24.6545 14.2V14.2727C24.7698 14.5416 24.9611 14.7709 25.205 14.9324C25.4489 15.094 25.7347 15.1807 26.0273 15.1818H26.1818C26.664 15.1818 27.1265 15.3734 27.4675 15.7144C27.8084 16.0553 28 16.5178 28 17C28 17.4822 27.8084 17.9447 27.4675 18.2856C27.1265 18.6266 26.664 18.8182 26.1818 18.8182H26.1C25.8075 18.8193 25.5217 18.906 25.2778 19.0676C25.0339 19.2291 24.8425 19.4584 24.7273 19.7273V19.7273Z" stroke="black" stroke-width="2" stroke-linecap="round" stroke-linejoin="round"/>
</svg>
