<svg width="30" height="26" viewBox="0 0 30 26" fill="none" xmlns="http://www.w3.org/2000/svg">
<path d="M7.13806 16.7328C7.16911 16.5658 7.11328 16.3945 6.9898 16.2778L0.761814 10.3959C0.456057 10.1071 0.621711 9.59285 1.03853 9.53684L10.0257 8.32905C10.1776 8.30864 10.3118 8.21969 10.3897 8.08772L14.7182 0.756581C14.9153 0.422753 15.4009 0.43051 15.5872 0.770464L19.667 8.21369C19.741 8.34876 19.8732 8.44217 20.0252 8.46689L28.9622 9.9196C29.3779 9.98718 29.5289 10.507 29.2141 10.7868L22.7913 16.496C22.6647 16.6085 22.6037 16.7774 22.6291 16.9447L23.8623 25.0709C23.9224 25.4668 23.5159 25.7692 23.154 25.5979L15.0096 21.7415C14.8787 21.6795 14.7273 21.6773 14.5946 21.7355L6.32748 25.3652C5.95984 25.5266 5.5615 25.2107 5.6349 24.8159L7.13806 16.7328Z" fill="#DDB200"/>
</svg>
